<?xml version="1.0" standalone="no"?>
<!DOCTYPE svg PUBLIC "-//W3C//DTD SVG 20010904//EN"
 "http://www.w3.org/TR/2001/REC-SVG-20010904/DTD/svg10.dtd">
<svg version="1.0" xmlns="http://www.w3.org/2000/svg"
 width="640.000000pt" height="641.000000pt" viewBox="0 0 640.000000 641.000000"
 preserveAspectRatio="xMidYMid meet">

<g transform="translate(0.000000,641.000000) scale(0.100000,-0.100000)"
fill="#000000" stroke="none">
<path d="M0 3205 l0 -3205 3200 0 3200 0 0 1519 c0 1439 -1 1520 -17 1524 -17
4 -17 5 0 6 16 1 17 19 17 237 0 221 -1 236 -17 230 -17 -6 -17 -5 0 8 16 12
17 93 17 1450 l0 1436 -3200 0 -3200 0 0 -3205z m4050 2190 c0 -8 -2 -15 -4
-15 -2 0 -6 7 -10 15 -3 8 -1 15 4 15 6 0 10 -7 10 -15z m120 -100 c0 -8 -2
-15 -4 -15 -2 0 -6 7 -10 15 -3 8 -1 15 4 15 6 0 10 -7 10 -15z m-45 -69 c19
-40 35 -77 35 -80 0 -4 4 -12 10 -19 5 -7 33 -47 60 -89 43 -66 160 -188 180
-188 3 0 4 17 3 38 -4 37 -4 37 11 12 9 -14 15 -32 16 -41 0 -32 72 -159 101
-179 41 -30 37 -46 -16 -53 -81 -12 -151 -55 -281 -175 -89 -82 -167 -125
-264 -144 -36 -6 -67 -13 -69 -15 -2 -1 27 -35 65 -76 64 -67 107 -135 121
-189 3 -13 9 -86 13 -163 7 -149 16 -184 57 -227 31 -33 28 -35 -77 -41 -133
-7 -210 -65 -261 -194 -33 -86 -33 -229 0 -301 24 -52 34 -61 46 -42 9 14 21
12 39 -6 20 -19 20 -29 1 -47 -12 -13 -10 -18 23 -40 75 -53 195 -75 222 -42
7 8 30 20 51 26 32 10 42 9 64 -5 15 -10 28 -16 30 -14 2 2 -42 38 -98 80 -56
42 -141 113 -190 158 l-87 82 41 50 c55 65 220 206 329 280 l25 16 -36 31
c-53 44 -75 106 -89 246 -19 206 -37 265 -98 322 -26 24 -22 43 9 43 39 0 96
40 194 137 121 119 168 145 278 151 l78 5 -2 31 c-2 17 -6 36 -10 41 -21 31
-40 353 -20 341 4 -3 9 -36 11 -73 1 -37 3 -88 5 -113 7 -121 76 -353 148
-495 68 -136 187 -297 275 -370 38 -31 42 -50 9 -41 -26 6 -240 -48 -357 -90
-152 -54 -333 -154 -483 -267 -82 -62 -276 -242 -267 -249 3 -2 48 -41 101
-85 122 -104 268 -213 285 -213 7 0 25 -11 41 -24 36 -30 169 -97 177 -89 12
12 6 91 -8 102 -8 7 -18 26 -21 42 -6 24 -9 27 -25 19 -27 -14 -67 4 -88 39
-14 25 -21 28 -47 24 -44 -7 -77 23 -81 73 -1 24 -7 38 -14 36 -22 -5 -97 38
-110 64 -8 14 -13 42 -13 62 1 48 48 92 97 92 29 0 34 4 39 30 11 50 71 76
137 56 22 -6 26 -4 27 16 4 50 84 87 113 53 19 -23 30 -18 30 15 0 47 41 83
89 78 33 -3 40 0 50 23 14 32 60 54 99 46 23 -4 29 0 43 26 15 30 20 32 65 31
37 -1 52 4 62 18 17 23 69 24 94 1 17 -15 19 -15 36 0 22 20 63 22 80 5 9 -9
13 -7 18 5 3 9 10 17 15 17 5 0 4 -11 -3 -24 -19 -42 -6 -53 75 -60 41 -4 88
-11 106 -16 41 -11 39 -7 -6 21 -21 12 -55 36 -77 52 -31 25 -50 31 -100 34
-50 3 -65 8 -83 29 -13 14 -23 30 -23 37 0 9 12 -4 35 -40 5 -9 62 -12 74 -4
11 7 5 19 -29 59 -36 42 -46 48 -61 39 -39 -24 -109 37 -94 84 5 14 1 19 -13
19 -35 0 -72 38 -72 74 0 17 5 37 12 44 9 9 5 12 -18 12 -16 0 -35 5 -42 12
-14 14 -16 67 -3 87 7 10 0 20 -22 35 -38 26 -45 57 -21 94 13 20 14 27 4 30
-44 15 -64 79 -37 116 12 16 10 22 -15 46 -32 32 -37 74 -12 101 15 17 14 20
-15 49 -24 25 -31 40 -31 71 0 43 14 79 31 79 5 0 3 -13 -6 -30 -16 -31 -19
-58 -9 -85 7 -19 61 -48 73 -40 11 6 31 -49 31 -84 -1 -23 -2 -24 -11 -8 -5 9
-8 21 -5 25 2 4 -2 15 -9 25 -12 17 -14 17 -34 -4 -26 -29 -27 -49 0 -83 25
-32 59 -35 59 -4 0 21 12 18 17 -5 1 -7 16 -59 32 -116 130 -450 318 -681 668
-821 72 -29 99 -36 105 -27 17 27 2 40 -59 53 -169 34 -350 190 -485 419 -20
33 -44 78 -53 100 -10 22 -20 43 -22 48 -2 4 2 7 9 7 7 0 24 -25 37 -56 l24
-55 29 53 c16 29 41 64 55 78 22 22 22 20 -5 -15 -16 -22 -38 -63 -48 -91
l-18 -51 60 -88 c32 -49 64 -90 71 -92 6 -2 14 9 18 26 3 16 13 35 21 42 12
10 12 6 -1 -24 -21 -50 -19 -68 10 -100 28 -30 41 -34 48 -14 3 6 6 1 6 -13 1
-17 14 -34 41 -53 l39 -28 15 34 c8 19 19 38 25 42 7 4 3 -10 -8 -31 -16 -30
-18 -41 -8 -52 11 -14 77 -47 81 -40 1 2 7 16 14 31 11 26 10 31 -13 49 -34
27 -32 44 3 19 33 -23 95 -48 136 -55 25 -5 36 1 70 37 22 23 37 34 33 24 -4
-10 -7 -22 -7 -26 0 -4 -8 -16 -18 -27 -9 -10 -35 -52 -56 -92 l-38 -73 -5
-153 c-5 -137 5 -284 24 -332 3 -8 0 -14 -5 -14 -6 0 -14 20 -18 45 -3 25 -10
45 -15 45 -4 0 -30 -7 -56 -16 -131 -45 -255 -66 -370 -64 l-73 1 0 -29 c0
-31 17 -91 30 -106 5 -4 35 -5 68 -1 l60 7 -14 34 c-8 18 -13 44 -13 56 1 20
2 21 6 3 2 -11 11 -36 19 -56 l16 -36 61 14 c79 18 204 59 240 79 16 9 30 14
33 11 7 -6 -66 -41 -184 -87 -33 -13 -33 -13 -13 -31 11 -11 23 -19 27 -19 17
0 142 55 173 76 19 13 38 21 41 19 12 -7 19 -45 9 -45 -5 0 -9 6 -9 14 0 11
-25 1 -85 -30 -46 -25 -93 -46 -105 -47 -13 -1 -19 -6 -15 -15 3 -7 5 -20 5
-28 0 -20 22 -17 77 11 50 25 114 44 100 29 -4 -4 -15 -9 -24 -10 -40 -6 -72
-26 -66 -42 4 -13 2 -14 -4 -4 -8 11 -15 11 -39 0 -16 -7 -32 -17 -36 -23 -9
-13 0 -45 19 -67 14 -16 17 -16 47 5 17 12 33 23 35 24 2 1 -2 10 -10 19 -13
16 -12 16 8 4 17 -11 27 -12 49 -2 48 22 35 7 -34 -38 -109 -73 -224 -190
-185 -190 3 0 47 40 97 88 51 49 104 97 119 106 31 21 60 15 50 -10 -5 -13 -3
-15 7 -9 9 5 11 4 6 -4 -4 -6 -12 -9 -17 -6 -5 4 -9 2 -9 -3 0 -5 -12 -15 -27
-22 -26 -12 -27 -13 -8 -21 17 -6 15 -8 -11 -8 -32 -1 -94 -51 -63 -51 9 0 24
-7 35 -16 18 -15 18 -15 -3 -5 -12 6 -30 11 -39 11 -17 0 -84 -56 -84 -71 0
-4 16 -10 35 -13 19 -4 37 -11 40 -16 4 -6 -4 -6 -20 0 -34 13 -65 13 -65 0 0
-6 14 -40 30 -75 33 -70 35 -86 20 -116 -8 -14 -7 -19 3 -19 20 0 112 63 99
68 -15 5 -16 32 -1 32 5 0 7 -4 4 -10 -13 -21 12 -9 38 18 28 29 28 23 2 137
-3 11 2 7 10 -10 8 -16 14 -40 15 -52 0 -32 15 -28 39 10 11 17 21 27 21 21 0
-33 -155 -201 -211 -227 -30 -14 -37 -23 -43 -56 -3 -22 -9 -46 -12 -55 -12
-31 80 32 154 105 40 39 75 69 78 66 10 -10 -115 -132 -171 -167 -32 -19 -66
-44 -76 -55 -10 -11 -36 -39 -57 -62 l-39 -42 30 -12 c17 -7 25 -15 19 -17 -6
-2 -22 4 -36 13 -15 10 -33 14 -46 10 -13 -4 -31 0 -45 9 -23 15 -28 15 -65
-4 -60 -31 -60 -31 81 -93 l57 -25 42 24 c45 26 60 30 44 14 -14 -14 -69 -46
-114 -66 -19 -9 -54 -25 -78 -35 -23 -11 -81 -30 -130 -43 -82 -21 -87 -25
-90 -51 -2 -18 2 -33 12 -41 15 -10 15 -12 1 -18 -17 -6 -22 -76 -5 -76 6 0
17 14 24 30 l12 30 25 -27 c19 -22 20 -24 2 -10 -21 18 -21 18 -28 -3 -4 -11
-18 -31 -32 -44 l-25 -23 -38 18 c-22 11 -43 26 -48 35 -8 14 -13 12 -47 -10
-21 -14 -45 -26 -54 -26 -10 0 -22 -5 -29 -12 -9 -9 -13 -7 -18 8 -4 10 -18
32 -31 47 -31 38 -30 87 2 125 27 33 20 42 -31 42 -15 0 -24 6 -24 15 0 8 9
15 20 15 15 0 20 7 20 27 0 28 35 73 57 73 10 0 8 10 -7 37 -11 21 -20 45 -20
53 0 25 30 60 51 60 23 0 24 8 4 34 -31 41 -9 108 40 120 24 6 24 6 8 41 -14
30 -15 38 -3 60 8 14 24 28 37 32 18 4 22 10 17 22 -24 57 -11 102 37 122 39
16 36 36 -16 92 -39 42 -44 45 -50 27 -3 -11 -22 -39 -41 -62 -45 -53 -83
-128 -123 -241 -72 -204 -100 -379 -110 -674 l-6 -205 115 7 c63 3 136 8 163
11 59 7 64 -11 5 -21 -24 -4 -100 -10 -170 -14 l-127 -6 -5 29 c-3 16 -6 57
-6 93 l0 64 -22 -21 c-32 -30 -138 -27 -138 4 0 7 22 11 63 11 l62 0 0 35 c0
32 -3 36 -50 53 -27 10 -57 27 -66 38 -15 20 -16 19 -28 -18 -22 -68 -25 -182
-7 -253 32 -125 96 -205 202 -255 71 -33 101 -55 49 -35 -14 5 -25 7 -25 5 0
-3 -17 2 -37 10 -56 24 -119 80 -155 140 -18 30 -36 55 -40 55 -8 0 -27 -90
-31 -150 -2 -29 -4 -20 -5 25 -1 48 4 82 16 110 14 31 16 47 9 70 -6 16 -12
36 -14 44 -6 24 -20 0 -43 -74 -20 -65 -44 -299 -33 -317 2 -5 -1 -8 -6 -8
-16 0 -13 173 4 253 8 38 26 94 41 125 20 42 28 75 29 126 l3 69 -20 -24 c-36
-44 -86 -163 -101 -239 -9 -41 -18 -131 -22 -199 -8 -134 -25 -149 -25 -21 0
107 24 253 54 336 14 39 26 88 26 109 l0 38 -52 -7 c-29 -3 -83 -6 -120 -6
-61 0 -68 -2 -68 -20 0 -18 7 -20 60 -20 47 0 60 -3 60 -15 0 -12 -15 -15 -75
-15 l-75 0 0 33 0 34 -66 10 c-65 9 -65 9 -79 -17 -20 -38 -58 -60 -104 -60
-78 0 -129 79 -110 169 6 30 2 41 -31 85 -88 117 -126 251 -117 410 4 56 15
129 26 163 23 75 88 198 141 269 l39 51 -39 12 c-24 7 -51 26 -69 48 l-30 37
-21 -50 c-24 -53 -60 -186 -60 -216 0 -33 -42 -18 -54 19 l-11 32 -22 -34
c-59 -90 -157 -39 -185 97 l-12 56 -30 -61 c-21 -42 -41 -66 -60 -76 -58 -27
-114 20 -123 103 l-6 46 -46 0 -46 0 -20 -57 c-25 -71 -58 -98 -109 -89 -28 5
-43 17 -64 48 -23 35 -27 52 -27 107 1 112 44 191 106 191 45 0 48 -26 6 -64
-39 -36 -55 -96 -42 -163 13 -72 56 -87 81 -28 19 46 18 70 -5 103 -28 39 -33
65 -17 87 20 28 60 7 77 -39 12 -34 44 -55 77 -50 6 1 18 2 26 3 7 0 16 13 19
29 17 78 86 136 155 129 41 -4 42 -4 42 25 0 26 -7 32 -72 63 -40 19 -107 43
-150 52 -45 9 -77 21 -75 27 2 6 35 23 73 37 70 26 124 56 227 124 49 32 63
50 93 109 56 114 128 161 156 101 l11 -24 71 39 c64 35 135 60 208 75 l27 5
-46 42 c-25 24 -66 72 -91 108 -25 36 -47 67 -48 69 -2 2 -18 -13 -37 -33 -80
-84 -173 -20 -193 135 l-7 53 -32 -70 c-31 -67 -81 -124 -110 -124 -7 0 -27
12 -44 26 -29 24 -46 64 -53 125 l-3 27 -61 -35 -61 -35 5 -49 c4 -39 0 -56
-22 -93 -61 -105 -196 -123 -196 -26 0 31 19 60 78 122 l44 46 -23 15 c-79 50
-110 67 -117 67 -5 0 -16 -17 -26 -37 -47 -99 -116 -163 -175 -163 -50 0 -111
90 -111 164 0 25 -3 26 -50 26 -61 0 -96 17 -139 66 -18 20 -34 35 -35 33 -27
-31 -80 -185 -91 -266 -4 -29 -12 -56 -18 -60 -17 -10 -47 36 -47 73 0 19 -2
34 -5 34 -3 0 -25 -20 -48 -45 -34 -35 -51 -45 -76 -45 -57 0 -98 60 -126 184
-6 27 -8 25 -39 -41 -33 -67 -74 -113 -103 -113 -27 0 -61 32 -77 71 -33 81
-16 183 42 249 47 55 85 74 138 66 36 -5 44 -3 49 13 9 29 37 35 55 13 13 -16
15 -34 8 -107 -8 -100 2 -208 26 -253 28 -54 63 -37 108 51 25 49 34 85 44
175 14 122 25 152 53 152 42 0 47 -34 25 -165 -5 -27 -3 -26 21 15 52 90 90
94 140 16 37 -58 49 -66 100 -66 28 0 33 4 39 31 3 17 6 45 6 61 0 39 16 68
38 68 37 0 42 -19 35 -140 -9 -165 14 -220 78 -190 52 24 125 151 107 184 -42
75 37 190 149 214 53 12 86 6 118 -24 38 -35 34 -124 -6 -124 -19 0 -23 8 -19
47 3 46 -90 38 -144 -12 -39 -36 -33 -60 21 -98 25 -17 67 -47 91 -65 l45 -34
84 44 c64 32 87 50 97 73 35 81 104 130 173 122 23 -2 43 -1 43 4 0 10 29 39
40 39 5 0 15 -7 23 -15 12 -12 14 -37 10 -138 -8 -166 15 -257 62 -257 8 0 26
16 41 35 l26 35 -31 96 c-75 227 -44 456 90 649 105 152 279 245 460 245 43 0
79 -4 79 -9 0 -5 -6 -11 -12 -14 -10 -3 -10 -9 0 -28 7 -13 13 -37 14 -53 3
-31 4 -32 66 -39 39 -5 42 -4 42 20 0 48 -28 90 -66 97 -19 4 -34 11 -34 16 0
5 21 3 48 -5 26 -8 47 -15 48 -15 0 0 1 7 1 15 0 8 -3 12 -7 10 -10 -6 -92 82
-130 138 -32 49 -130 249 -130 267 0 24 13 5 45 -64z m156 22 c7 -18 18 -36
23 -40 8 -5 7 -8 -1 -8 -12 0 -53 60 -53 79 0 20 17 3 31 -31z m-48 -82 c-6
-8 -19 9 -23 29 -1 6 -11 22 -22 37 -10 16 -16 33 -12 39 4 8 18 -9 35 -42 15
-30 25 -58 22 -63z m397 84 c0 -10 -64 -40 -84 -40 -6 1 1 8 17 16 15 8 27 18
27 22 0 4 9 8 20 9 11 1 20 -2 20 -7z m-190 -24 c0 -8 -4 -17 -8 -20 -4 -2 -8
4 -8 15 0 10 4 19 8 19 4 0 8 -6 8 -14z m-67 -91 l51 -44 21 35 c11 19 24 32
28 28 4 -4 7 0 7 10 0 9 4 15 9 12 5 -4 -7 -34 -27 -68 -21 -34 -38 -55 -40
-47 -2 8 -23 30 -48 49 -42 32 -73 70 -58 70 3 0 29 -20 57 -45z m-79 -30 c55
-64 45 -74 -14 -14 -33 34 -52 69 -37 69 2 0 25 -25 51 -55z m86 -80 c28 -14
30 -14 30 2 0 12 3 14 11 6 8 -8 8 -22 1 -50 -6 -25 -10 -30 -11 -16 -1 14
-12 28 -30 38 -28 14 -49 35 -36 35 3 0 19 -7 35 -15z m334 -18 c3 4 6 1 6 -6
0 -16 -52 -10 -58 7 -3 9 2 10 21 3 14 -5 28 -7 31 -4z m41 -7 c3 -5 -1 -10
-10 -10 -9 0 -13 5 -10 10 3 6 8 10 10 10 2 0 7 -4 10 -10z m85 0 c0 -6 -16
-10 -35 -10 -45 0 -45 14 0 17 19 2 35 -2 35 -7z m34 -8 c3 -5 -1 -9 -9 -9 -8
0 -12 4 -9 9 3 4 7 8 9 8 2 0 6 -4 9 -8z m-3706 -143 c28 -56 45 -221 40 -386
-2 -61 0 -109 5 -106 4 2 7 10 7 17 0 26 88 283 122 357 41 88 100 159 133
159 12 0 29 -8 38 -18 36 -40 40 -110 33 -582 -6 -477 -1 -607 29 -640 20 -23
12 -40 -19 -40 -86 0 -106 210 -83 857 9 273 6 353 -13 353 -15 0 -61 -79 -96
-165 -39 -96 -101 -301 -147 -485 -27 -104 -38 -136 -52 -138 -10 -2 -21 2
-26 10 -5 7 -9 157 -9 333 0 383 -13 490 -53 457 -91 -76 -224 -658 -244
-1069 -6 -139 -11 -160 -36 -150 -63 24 -63 1170 0 1233 8 7 21 14 28 14 27 0
32 -34 19 -130 -7 -52 -15 -189 -19 -305 -3 -115 -7 -230 -9 -255 -6 -66 7
-16 39 160 51 271 119 467 188 538 26 27 38 32 67 30 30 -3 38 -9 58 -49z
m3901 17 c-2 -2 -17 -6 -34 -10 -22 -5 -26 -4 -15 4 14 9 59 15 49 6z m-186
-83 c5 -26 2 -42 -7 -32 -9 11 -15 59 -7 59 5 0 11 -12 14 -27z m107 7 c0 -5
-2 -10 -4 -10 -3 0 -8 5 -11 10 -3 6 -1 10 4 10 6 0 11 -4 11 -10z m160 -144
c0 -2 -8 -10 -17 -17 -16 -13 -17 -12 -4 4 13 16 21 21 21 13z m227 -12 c-3
-3 -12 -4 -19 -1 -8 3 -5 6 6 6 11 1 17 -2 13 -5z m-350 -101 l10 -28 12 29
c6 16 14 26 17 23 3 -3 -2 -19 -11 -37 -15 -30 -15 -35 1 -81 15 -42 20 -48
30 -35 18 25 24 19 12 -14 -7 -21 -7 -39 0 -58 19 -51 21 -62 13 -62 -11 0
-111 254 -111 283 0 17 17 5 27 -20z m213 -4 c0 -4 -7 -6 -15 -3 -8 4 -15 10
-15 15 0 4 7 6 15 3 8 -4 15 -10 15 -15z m-40 1 c0 -5 -2 -10 -4 -10 -3 0 -8
5 -11 10 -3 6 -1 10 4 10 6 0 11 -4 11 -10z m-64 -58 c-18 -16 -18 -16 -6 6 6
13 14 21 18 18 3 -4 -2 -14 -12 -24z m104 9 c13 -25 13 -34 0 -26 -16 10 -32
45 -21 45 6 0 15 -9 21 -19z m4 -83 c-16 -18 -34 -38 -41 -45 -6 -7 -15 -13
-19 -13 -5 0 12 20 36 45 50 51 69 61 24 13z m46 -19 c0 -6 -4 -7 -10 -4 -5 3
-10 11 -10 16 0 6 5 7 10 4 6 -3 10 -11 10 -16z m29 -70 c16 -46 13 -59 -6
-24 -20 35 -24 55 -13 55 4 0 13 -14 19 -31z m-146 6 c-3 -9 -8 -14 -10 -11
-3 3 -2 9 2 15 9 16 15 13 8 -4z m-2571 -60 c-13 -29 -28 -32 -54 -8 -24 21
-23 39 4 57 21 15 24 14 42 -4 17 -16 18 -23 8 -45z m2968 45 c0 -5 -2 -10 -4
-10 -3 0 -8 5 -11 10 -3 6 -1 10 4 10 6 0 11 -4 11 -10z m25 -20 c3 -5 1 -10
-4 -10 -6 0 -11 5 -11 10 0 6 2 10 4 10 3 0 8 -4 11 -10z m-135 -86 c0 -2 -7
-4 -15 -4 -8 0 -15 4 -15 10 0 5 7 7 15 4 8 -4 15 -8 15 -10z m37 -10 c-3 -3
-12 -4 -19 -1 -8 3 -5 6 6 6 11 1 17 -2 13 -5z m-184 -61 c-11 -15 -24 -41
-28 -58 -6 -22 -9 -25 -12 -12 -5 18 45 113 54 103 3 -3 -4 -17 -14 -33z m110
-65 c14 -27 21 -48 15 -48 -5 0 -12 9 -15 20 -6 23 -13 25 -33 8 -8 -7 -7 -4
2 7 12 14 14 25 8 35 -10 15 -14 37 -6 29 2 -2 15 -25 29 -51z m127 -40 c19
-23 26 -35 15 -28 -24 15 -70 70 -58 69 4 0 24 -19 43 -41z m24 34 c2 -4 -5
-9 -17 -9 -17 -2 -19 0 -7 7 18 12 18 12 24 2z m176 -10 c0 -5 -7 -17 -15 -28
-14 -18 -14 -17 -4 9 12 27 19 34 19 19z m-270 -73 c7 -11 28 -38 47 -60 25
-28 31 -39 19 -39 -9 0 -16 3 -16 8 0 4 -13 22 -30 40 -37 41 -55 72 -41 72 6
0 15 -9 21 -21z m376 4 c7 -10 13 -22 13 -28 0 -5 -4 -2 -10 8 -5 9 -17 17
-25 17 -8 0 -12 5 -9 10 9 14 16 12 31 -7z m-34 -45 c-7 -7 -12 -8 -12 -2 0
14 12 26 19 19 2 -3 -1 -11 -7 -17z m-132 -28 c19 -16 30 -29 25 -30 -6 0 -26
13 -45 30 -19 16 -30 29 -25 30 6 0 26 -13 45 -30z m-247 5 c-3 -9 -8 -14 -10
-11 -3 3 -2 9 2 15 9 16 15 13 8 -4z m347 -65 c13 -8 13 -10 -2 -10 -9 0 -20
5 -23 10 -8 13 5 13 25 0z m155 -10 c-3 -5 -12 -10 -18 -10 -7 0 -6 4 3 10 19
12 23 12 15 0z m-49 -64 c-32 -31 -33 -24 -4 17 12 17 23 26 25 20 2 -6 -7
-23 -21 -37z m45 -13 c13 -16 12 -17 -3 -4 -10 7 -18 15 -18 17 0 8 8 3 21
-13z m-115 -109 c-8 -16 -16 -47 -18 -68 l-3 -40 55 -17 c30 -9 48 -17 39 -18
-9 -1 -35 6 -58 14 l-41 14 -1 -27 c-6 -108 0 -234 13 -277 5 -16 11 -45 14
-63 2 -18 13 -56 24 -84 11 -29 18 -54 15 -56 -9 -9 -49 113 -70 213 -17 85
-19 266 -3 338 10 44 38 110 44 104 2 -2 -2 -17 -10 -33z m54 -34 c8 -5 11
-10 5 -10 -5 0 -17 5 -25 10 -8 5 -10 10 -5 10 6 0 17 -5 25 -10z m70 -30 c8
-5 11 -10 5 -10 -5 0 -17 5 -25 10 -8 5 -10 10 -5 10 6 0 17 -5 25 -10z
m-3155 -34 c68 -68 57 -197 -32 -369 -57 -110 -137 -196 -217 -233 -31 -14
-56 -27 -56 -30 0 -8 52 -86 108 -163 71 -98 187 -217 235 -242 41 -21 45 -42
9 -47 -58 -9 -198 134 -375 379 -17 24 -17 24 -12 -21 2 -25 7 -114 10 -198 6
-136 5 -153 -10 -158 -24 -9 -32 8 -44 95 -31 216 -32 624 -1 866 16 121 17
125 45 125 36 0 38 -24 21 -189 -9 -80 -14 -146 -12 -148 1 -2 8 16 15 39 19
64 87 190 128 238 70 81 141 103 188 56z m3078 -133 c-7 -2 -21 -2 -30 0 -10
3 -4 5 12 5 17 0 24 -2 18 -5z m87 -2 c0 -4 -11 -20 -25 -33 -26 -26 -23 -37
18 -51 14 -5 25 -27 13 -27 -11 0 -57 29 -57 36 0 5 -9 8 -19 6 -32 -5 -23 13
15 31 20 9 38 24 41 32 7 16 14 20 14 6z m-90 -106 c-46 -18 -61 -18 -30 0 14
8 34 14 45 14 13 0 8 -5 -15 -14z m66 -70 c-11 -8 -25 -15 -30 -15 -6 1 0 7
14 15 32 19 40 18 16 0z m-66 -29 c0 -2 -7 -7 -16 -10 -8 -3 -12 -2 -9 4 6 10
25 14 25 6z m334 -55 c-22 -36 -25 -37 -49 -11 -10 11 -13 20 -7 20 6 0 14 -4
17 -10 10 -16 21 -12 35 15 7 14 15 23 18 21 2 -3 -4 -18 -14 -35z m-501 -11
c3 -11 1 -18 -4 -14 -5 3 -9 12 -9 20 0 20 7 17 13 -6z m236 -6 c-13 -14 -37
-35 -54 -46 -16 -11 -7 1 20 26 55 51 72 60 34 20z m-305 -36 c8 -5 7 -8 -1
-8 -7 0 -17 9 -23 19 -14 27 -12 41 2 16 6 -11 16 -23 22 -27z m123 -10 c-3
-8 -6 -5 -6 6 -1 11 2 17 5 13 3 -3 4 -12 1 -19z m-238 -43 c0 -5 -6 -1 -14 9
-8 11 -15 24 -15 30 0 5 7 1 15 -10 8 -10 14 -23 14 -29z m513 13 c-7 -7 -12
-8 -12 -2 0 14 12 26 19 19 2 -3 -1 -11 -7 -17z m-52 -3 c0 -2 -10 -9 -22 -15
-22 -11 -22 -10 -4 4 21 17 26 19 26 11z m-5776 -46 c-3 -5 -10 -7 -15 -3 -5
3 -7 10 -3 15 3 5 10 7 15 3 5 -3 7 -10 3 -15z m5818 -1 c-7 -7 -12 -8 -12 -2
0 14 12 26 19 19 2 -3 -1 -11 -7 -17z m-218 -23 c3 -8 1 -15 -3 -15 -5 0 -11
7 -15 15 -3 8 -1 15 3 15 5 0 11 -7 15 -15z m91 -5 c3 -5 1 -10 -4 -10 -6 0
-11 5 -11 10 0 6 2 10 4 10 3 0 8 -4 11 -10z m300 -15 c23 -14 33 -25 23 -25
-9 0 -18 5 -20 10 -2 6 -21 17 -43 25 -23 8 -31 14 -20 15 11 0 38 -11 60 -25z
m-5965 5 c0 -5 -2 -10 -4 -10 -3 0 -8 5 -11 10 -3 6 -1 10 4 10 6 0 11 -4 11
-10z m5587 -42 c-3 -8 -6 -5 -6 6 -1 11 2 17 5 13 3 -3 4 -12 1 -19z m137 -30
c8 -5 7 -8 0 -8 -7 0 -19 11 -28 25 -21 33 -21 46 1 15 9 -14 22 -28 27 -32z
m-5674 32 c0 -5 -5 -10 -11 -10 -5 0 -7 5 -4 10 3 6 8 10 11 10 2 0 4 -4 4
-10z m5985 -29 c-6 -5 -25 10 -25 20 0 5 6 4 14 -3 8 -7 12 -15 11 -17z
m-5961 -12 c-3 -5 -10 -7 -15 -3 -5 3 -7 10 -3 15 3 5 10 7 15 3 5 -3 7 -10 3
-15z m5544 -4 c-3 -3 -9 2 -12 12 -6 14 -5 15 5 6 7 -7 10 -15 7 -18z m-4637
-35 c9 -58 35 -95 111 -162 161 -140 220 -222 252 -344 9 -34 16 -83 16 -108
0 -30 4 -46 13 -46 6 0 59 7 117 15 58 8 194 18 303 22 l197 6 1 -44 c2 -80
-2 -133 -13 -214 -8 -59 -8 -80 1 -83 16 -5 14 -32 -3 -32 -20 0 -30 -72 -11
-83 21 -11 19 -27 -3 -27 -12 0 -20 -12 -28 -45 l-10 -44 35 -3 c48 -4 42 -22
-9 -26 -26 -2 -40 -8 -40 -17 0 -7 -2 -20 -5 -27 -5 -11 9 -14 67 -14 105 1
155 -25 312 -167 148 -133 216 -174 305 -183 62 -7 75 -20 47 -43 -21 -18 -56
-107 -67 -169 -5 -32 -9 -96 -10 -144 -1 -76 -3 -86 -15 -74 -16 17 -19 30 -4
21 6 -3 10 -1 10 4 0 6 -4 11 -10 11 -5 0 -9 11 -8 25 1 14 5 25 9 25 3 0 4
25 1 55 -5 66 12 165 39 217 l19 37 -38 7 c-77 13 -158 63 -273 165 -179 159
-235 190 -332 183 -52 -4 -77 -17 -77 -40 0 -10 14 -14 51 -14 77 0 145 -38
247 -137 101 -98 164 -143 245 -174 31 -12 57 -26 57 -31 0 -5 -10 -23 -22
-39 -19 -25 -23 -43 -22 -94 0 -34 6 -83 13 -107 7 -25 11 -56 9 -69 -5 -35
-49 144 -50 202 0 27 7 57 16 71 l16 25 -83 41 c-58 29 -104 62 -157 112 -113
109 -150 137 -207 155 -62 20 -123 11 -136 -20 -69 -164 -96 -220 -105 -218
-6 2 -9 -4 -6 -12 4 -10 0 -15 -11 -15 -9 0 -15 3 -13 7 49 103 103 247 131
351 24 86 24 92 7 92 -22 0 -27 18 -26 98 1 34 0 62 -2 62 -1 0 -14 -7 -27
-16 l-24 -16 20 -31 c10 -18 19 -41 19 -52 0 -36 -39 -85 -84 -107 l-44 -21
20 -33 c25 -43 17 -85 -24 -119 -24 -20 -37 -25 -60 -20 l-29 7 25 -41 c25
-39 33 -82 20 -115 -3 -9 -10 -16 -14 -16 -5 0 -3 13 3 29 8 22 7 36 -3 61
-26 63 -77 87 -77 36 -1 -23 -31 -126 -38 -126 -21 0 60 273 144 486 l19 50
-41 -5 c-42 -6 -42 -6 -53 -62 -6 -31 -15 -62 -19 -68 -4 -7 -13 -40 -21 -73
-8 -33 -20 -68 -27 -79 -12 -17 -13 -16 -13 14 0 18 -4 41 -8 52 -8 19 -8 19
6 1 13 -17 15 -14 27 37 18 72 9 116 -33 156 -29 28 -39 32 -65 26 l-30 -6 20
-52 c33 -83 33 -84 -8 -41 -82 85 -127 92 -159 23 l-18 -40 47 -45 c63 -60 60
-66 -5 -9 -29 25 -72 57 -95 71 -37 21 -43 23 -56 9 -9 -8 -24 -15 -34 -15
-10 -1 -29 -7 -42 -14 l-24 -13 44 -31 c24 -16 57 -45 74 -64 l30 -33 -35 31
c-64 57 -127 94 -147 87 -16 -6 -16 -5 -5 10 8 9 29 21 48 27 19 6 34 14 34
17 0 15 -48 58 -65 58 -25 0 -35 -13 -35 -47 0 -16 -4 -28 -10 -28 -5 0 -10 9
-10 19 0 23 -22 40 -28 23 -2 -7 -8 -12 -13 -12 -6 0 -8 4 -4 10 3 5 -11 28
-32 52 -37 41 -26 37 25 -10 37 -33 54 -14 50 57 -2 46 -6 56 -20 55 -24 -2
-23 4 9 33 23 22 33 25 77 20 43 -4 55 -1 79 19 33 28 86 32 121 9 22 -15 25
-14 59 20 38 38 66 43 107 20 32 -18 40 -18 40 -1 0 24 50 56 88 56 27 0 42
-8 67 -34 l33 -35 22 24 c12 13 43 28 69 34 64 14 122 -14 148 -70 16 -36 21
-39 53 -37 35 3 35 4 41 58 4 30 9 99 12 153 l4 99 -126 -6 c-444 -22 -680
-69 -918 -182 -50 -24 -98 -44 -107 -44 -9 0 -16 -6 -16 -14 0 -20 -26 -27
-27 -7 -1 15 37 41 62 41 5 0 16 9 23 20 7 12 17 18 21 15 5 -2 12 3 15 12 6
14 9 15 15 4 7 -10 13 -10 29 5 26 22 157 75 245 99 37 10 70 22 73 26 9 15
-17 131 -38 173 -35 70 -65 103 -166 180 -62 47 -106 90 -120 115 -23 40 -23
40 -48 24 -20 -13 -39 -15 -102 -8 -158 15 -242 20 -242 14 0 -6 -62 -21 -76
-19 -4 1 -10 -2 -13 -7 -10 -14 -49 -32 -55 -26 -10 10 30 33 96 55 57 18 77
19 214 13 l150 -7 31 26 c34 29 43 32 43 14 0 -6 9 -31 21 -55 16 -32 48 -64
124 -124 145 -113 186 -176 201 -310 6 -55 9 -60 28 -55 11 3 27 6 34 6 28 0
2 135 -47 244 -33 72 -85 135 -178 214 -92 77 -120 109 -139 160 -9 23 -19 42
-21 42 -3 0 -18 -11 -34 -24 -16 -14 -55 -34 -86 -47 -52 -19 -78 -22 -245
-23 -133 -1 -188 2 -188 10 0 17 71 26 89 11 10 -8 13 -8 8 0 -5 7 4 11 27 10
19 0 33 -3 31 -6 -2 -4 50 -3 115 1 132 7 199 29 255 86 38 39 58 36 66 -8z
m4594 30 c-3 -5 -12 -10 -18 -10 -7 0 -6 4 3 10 19 12 23 12 15 0z m9 -75 c-4
-8 -8 -15 -10 -15 -2 0 -4 7 -4 15 0 8 4 15 10 15 5 0 7 -7 4 -15z m282 -42
c-7 -7 -26 7 -26 19 0 6 6 6 15 -2 9 -7 13 -15 11 -17z m-5503 -20 c8 -7 -61
-52 -81 -53 -19 0 -4 19 32 41 34 21 39 22 49 12z m-143 -32 c0 -6 -4 -13 -10
-16 -5 -3 -10 1 -10 9 0 9 5 16 10 16 6 0 10 -4 10 -9z m5520 -3 c0 -7 -9 -24
-21 -38 l-20 -25 18 38 c18 39 23 45 23 25z m45 2 c8 -13 -5 -13 -25 0 -13 8
-13 10 2 10 9 0 20 -4 23 -10z m-5505 -40 c0 -5 -2 -10 -4 -10 -3 0 -8 5 -11
10 -3 6 -1 10 4 10 6 0 11 -4 11 -10z m5343 -20 c3 -11 1 -18 -4 -14 -5 3 -9
12 -9 20 0 20 7 17 13 -6z m54 -62 c-3 -8 -6 -5 -6 6 -1 11 2 17 5 13 3 -3 4
-12 1 -19z m-5377 -18 c0 -5 -5 -10 -11 -10 -5 0 -7 5 -4 10 3 6 8 10 11 10 2
0 4 -4 4 -10z m5170 -67 c0 -9 -11 0 -25 21 -14 20 -25 40 -25 44 1 14 50 -50
50 -65z m-4582 -2 c45 -23 63 -43 92 -101 34 -66 31 -170 -5 -245 -15 -30 -31
-55 -35 -55 -4 0 -10 -9 -13 -20 -3 -11 -11 -20 -19 -20 -8 0 -9 3 -3 8 14 10
48 72 42 78 -9 10 -64 -28 -89 -63 -16 -20 -28 -32 -28 -26 0 6 10 23 22 38
17 22 22 41 21 90 -1 119 -65 171 -172 139 -49 -14 -127 -86 -115 -107 5 -9 4
-9 -6 0 -11 10 -9 17 6 40 10 15 17 31 16 35 -1 5 1 7 6 6 4 -2 23 9 43 24 19
15 50 29 68 30 l33 2 -5 59 c-7 74 -18 87 -55 65 -28 -18 -32 -37 -19 -93 6
-25 3 -23 -16 13 l-23 43 -36 -40 c-20 -22 -31 -42 -26 -43 5 -2 -2 -13 -16
-26 -14 -12 -26 -19 -26 -17 0 15 42 85 51 85 6 0 8 4 5 9 -9 13 46 65 91 86
81 39 144 40 211 6z m4723 -23 c-8 -23 -41 -58 -41 -44 0 9 44 75 48 72 1 -2
-2 -14 -7 -28z m109 -28 c-6 -11 -12 -20 -14 -20 -2 0 -2 9 1 20 3 11 9 20 15
20 5 0 4 -9 -2 -20z m201 -7 c-12 -20 -14 -14 -5 12 4 9 9 14 11 11 3 -2 0
-13 -6 -23z m-153 -38 c-6 -14 -15 -25 -20 -25 -5 0 -6 6 -1 13 8 12 9 17 12
38 0 5 5 8 11 4 6 -3 5 -15 -2 -30z m-107 -52 c-41 -62 -71 -93 -71 -74 0 6 4
11 8 11 4 0 27 30 51 66 24 36 45 63 47 61 3 -2 -13 -31 -35 -64z m-5261 47
c0 -5 -4 -10 -9 -10 -6 0 -13 5 -16 10 -3 6 1 10 9 10 9 0 16 -4 16 -10z m24
-46 c3 -8 2 -12 -4 -9 -6 3 -10 10 -10 16 0 14 7 11 14 -7z m5306 -14 c0 -5
-8 -18 -18 -28 -9 -9 -16 -26 -15 -37 2 -11 0 -14 -3 -7 -3 6 -10 9 -16 6 -12
-8 -9 0 17 43 20 33 35 42 35 23z m-5132 -25 c-3 -3 -9 2 -12 12 -6 14 -5 15
5 6 7 -7 10 -15 7 -18z m4887 -53 c-3 -3 -11 0 -18 7 -9 10 -8 11 6 5 10 -3
15 -9 12 -12z m51 -60 l-29 -27 23 32 c13 18 26 30 29 28 3 -3 -8 -18 -23 -33z
m-4964 -31 c-6 -44 -30 -61 -24 -18 5 45 11 59 20 53 5 -3 7 -19 4 -35z m5058
24 c-7 -9 -15 -13 -17 -11 -7 7 7 26 19 26 6 0 6 -6 -2 -15z m-4878 -32 c28
-27 37 -53 18 -53 -5 0 -10 7 -10 16 0 21 -28 43 -55 44 -11 0 -27 5 -35 10
-11 7 -6 10 19 10 24 0 43 -8 63 -27z m4654 -11 c-5 -4 -66 26 -66 33 0 3 16
-3 35 -12 19 -9 33 -18 31 -21z m-4769 11 c-9 -2 -15 -8 -12 -13 3 -4 -2 -13
-10 -20 -12 -10 -15 -10 -15 2 0 19 21 38 40 37 11 -1 11 -2 -3 -6z m4820 -19
c-3 -3 -12 -4 -19 -1 -8 3 -5 6 6 6 11 1 17 -2 13 -5z m-4940 -26 c-3 -8 -6
-5 -6 6 -1 11 2 17 5 13 3 -3 4 -12 1 -19z m273 -39 c0 -6 -9 -28 -20 -50 -15
-33 -16 -40 -4 -35 12 4 11 1 -2 -17 -10 -13 -25 -23 -35 -23 -17 0 -17 2 -1
28 9 15 20 28 24 28 4 0 7 3 6 8 -5 18 14 82 23 77 5 -4 9 -11 9 -16z m4615 1
c-10 -11 -23 -20 -29 -20 -6 1 0 10 13 20 30 26 39 26 16 0z m125 7 c0 -2 -12
-14 -27 -28 -20 -18 -24 -19 -13 -4 18 24 40 42 40 32z m-4956 -32 c-4 -8 -8
-15 -10 -15 -2 0 -4 7 -4 15 0 8 4 15 10 15 5 0 7 -7 4 -15z m4786 -10 c0 -7
-30 -13 -34 -7 -3 4 4 9 15 9 10 1 19 0 19 -2z m10 -79 c0 -2 -8 -10 -17 -17
-16 -13 -17 -12 -4 4 13 16 21 21 21 13z m-4634 -53 c-4 -4 -12 -1 -19 7 -9
10 -9 11 1 6 7 -4 12 -2 13 6 0 11 2 11 6 0 3 -7 2 -16 -1 -19z m4594 17 c0
-6 -8 -13 -17 -17 -10 -3 -30 -15 -45 -25 -31 -21 -45 -24 -25 -4 12 13 78 56
85 56 1 0 2 -5 2 -10z m-4520 -56 c0 -10 -15 -14 -60 -14 l-60 0 0 -44 0 -43
53 1 c70 1 72 -18 2 -22 l-55 -3 0 -39 c0 -21 4 -41 8 -44 5 -3 41 -6 80 -7
73 -2 95 -13 45 -22 -25 -5 -58 -4 -135 1 l-27 2 -3 128 -3 127 78 -3 c58 -3
77 -7 77 -18z m-260 1 c0 -11 -12 -15 -45 -15 l-45 0 0 -110 c0 -67 -4 -110
-10 -110 -6 0 -10 43 -10 110 l0 110 -40 0 c-29 0 -40 4 -40 15 0 12 17 15 95
15 78 0 95 -3 95 -15z m1600 -84 c0 -113 9 -131 65 -131 52 0 65 27 65 137 0
76 3 93 15 93 12 0 15 -17 15 -96 0 -131 -19 -163 -98 -164 -32 0 -49 6 -67
25 -23 23 -25 31 -25 130 0 87 3 105 15 105 12 0 15 -18 15 -99z m460 84 c0
-11 -11 -15 -40 -15 l-40 0 0 -115 c0 -96 -3 -115 -15 -115 -12 0 -15 19 -15
115 l0 115 -40 0 c-29 0 -40 4 -40 15 0 12 17 15 95 15 78 0 95 -3 95 -15z
m267 -109 c28 -69 49 -127 45 -130 -12 -13 -22 -4 -41 39 -20 45 -20 45 -69
45 -49 0 -49 0 -66 -45 -10 -25 -24 -45 -32 -45 -8 0 -14 4 -14 8 0 7 60 160
90 230 19 43 36 23 87 -102z m343 69 l0 -55 65 0 65 0 0 55 c0 42 3 55 15 55
13 0 15 -21 15 -130 0 -109 -2 -130 -15 -130 -12 0 -15 13 -15 60 l0 60 -65 0
-65 0 0 -61 c0 -44 -3 -60 -12 -57 -9 3 -14 41 -16 131 -2 109 0 127 13 127
12 0 15 -12 15 -55z m1985 47 c6 -4 22 -21 37 -37 l27 -30 -24 0 c-19 0 -23 4
-19 18 4 13 -1 17 -23 17 -16 0 -34 -5 -41 -12 -6 -6 -15 -9 -19 -5 -3 4 2 14
13 22 18 14 18 14 -4 15 -28 0 -82 -27 -82 -41 0 -6 10 -8 23 -5 19 5 19 5 -3
-6 -14 -7 -28 -17 -32 -23 -12 -15 -9 -65 3 -65 5 0 7 -4 4 -10 -20 -33 53
-75 112 -64 33 6 46 -7 21 -23 -30 -18 -133 8 -149 38 -7 13 -16 18 -29 14
-10 -3 -21 -1 -25 5 -4 7 0 10 11 8 11 -2 19 3 18 10 -1 6 -2 25 -2 41 -2 24
-7 30 -29 34 l-28 4 32 13 c17 8 37 23 43 35 6 12 23 29 38 38 28 17 109 23
127 9z m245 -37 c11 -25 20 -47 20 -50 0 -3 14 -36 30 -74 34 -80 35 -81 17
-81 -8 0 -21 18 -30 40 -15 40 -16 40 -65 39 -48 -2 -50 -3 -71 -46 -12 -25
-26 -41 -32 -38 -6 4 -8 14 -5 22 4 9 1 23 -6 31 -8 10 -8 13 -2 9 17 -10 47
44 94 167 14 38 28 32 50 -19z m-80 11 c0 -2 -8 -10 -17 -17 -16 -13 -17 -12
-4 4 13 16 21 21 21 13z m-4488 -78 c-7 -7 -12 -8 -12 -2 0 14 12 26 19 19 2
-3 -1 -11 -7 -17z m4242 -46 c-5 -8 -54 32 -54 44 0 7 12 1 28 -14 15 -15 27
-28 26 -30z m97 31 c-12 -20 -14 -14 -5 12 4 9 9 14 11 11 3 -2 0 -13 -6 -23z
m-54 -39 c-3 -3 -12 -4 -19 -1 -8 3 -5 6 6 6 11 1 17 -2 13 -5z m75 -76 c-7
-7 -12 -8 -12 -2 0 14 12 26 19 19 2 -3 -1 -11 -7 -17z m-102 -36 c0 -8 -43
-32 -56 -32 -16 0 6 25 27 31 13 4 25 7 27 8 1 1 2 -3 2 -7z m-4184 -28 c-11
-7 -22 -11 -25 -8 -3 3 3 12 13 20 11 7 22 11 25 8 3 -3 -3 -12 -13 -20z m518
0 c3 -8 2 -12 -4 -9 -6 3 -10 10 -10 16 0 14 7 11 14 -7z m3586 -6 c0 -4 -4
-8 -9 -8 -6 0 -12 4 -15 8 -3 5 1 9 9 9 8 0 15 -4 15 -9z m-45 -8 c-3 -5 -16
-10 -28 -9 -20 1 -20 2 3 9 14 4 26 8 28 9 2 1 0 -3 -3 -9z m-4110 -10 c-3 -5
-14 -10 -23 -10 -15 0 -15 2 -2 10 20 13 33 13 25 0z m4031 -15 c-11 -8 -22
-12 -25 -9 -6 6 19 24 34 24 6 -1 1 -7 -9 -15z m-76 -13 c0 -4 -9 -8 -20 -9
-11 -1 -20 2 -20 8 0 5 9 9 20 9 11 0 20 -4 20 -8z m-3505 -23 c11 -17 -1 -21
-15 -4 -8 9 -8 15 -2 15 6 0 14 -5 17 -11z m-25 -14 c0 -12 -53 -110 -62 -116
-6 -4 -6 -9 1 -13 6 -4 11 -12 11 -19 0 -6 -7 -4 -17 5 -15 16 -14 20 15 67
30 49 28 77 -3 51 -8 -7 -15 -9 -15 -4 0 4 -6 0 -13 -10 -12 -16 -14 -16 -14
-3 0 10 16 22 41 31 47 16 56 18 56 11z m80 -66 c15 -28 5 -23 -15 7 -9 15
-12 23 -6 20 6 -4 16 -16 21 -27z m-235 -8 c-6 -4 -23 -11 -40 -15 l-30 -6 25
15 c27 16 60 21 45 6z m325 -20 c0 -19 -23 -71 -32 -71 -5 0 -7 -4 -3 -9 3 -5
-8 -43 -24 -83 -17 -40 -30 -66 -30 -57 -1 9 6 30 14 45 22 43 28 90 16 124
-6 18 -6 28 -1 25 6 -4 10 -13 10 -21 0 -29 19 -13 26 21 3 19 10 35 15 35 5
0 9 -4 9 -9z m-240 -61 c0 -5 -4 -10 -10 -10 -5 0 -10 5 -10 10 0 6 5 10 10
10 6 0 10 -4 10 -10z m54 -26 c3 -8 2 -12 -4 -9 -6 3 -10 10 -10 16 0 14 7 11
14 -7z m-82 -26 c-7 -7 -12 -8 -12 -2 0 6 3 14 7 17 3 4 9 5 12 2 2 -3 -1 -11
-7 -17z m3118 -37 c0 -5 -6 -14 -14 -21 -12 -9 -15 -8 -13 9 1 20 27 31 27 12z
m-113 -93 c-2 -18 -4 -6 -4 27 0 33 2 48 4 33 2 -15 2 -42 0 -60z m333 72 c0
-5 -4 -10 -10 -10 -5 0 -10 5 -10 10 0 6 5 10 10 10 6 0 10 -4 10 -10z m40 6
c0 -3 -4 -8 -10 -11 -5 -3 -10 -1 -10 4 0 6 5 11 10 11 6 0 10 -2 10 -4z
m-128 -36 c-12 -11 -25 -20 -29 -20 -9 1 36 40 45 40 3 0 -4 -9 -16 -20z m323
-28 c-3 -3 -11 0 -18 7 -9 10 -8 11 6 5 10 -3 15 -9 12 -12z m-511 2 c18 -7
12 -24 -10 -24 -8 0 -14 7 -14 15 0 17 2 18 24 9z m-2301 -25 c35 -9 52 -29
25 -29 -7 0 -23 -12 -36 -27 -18 -22 -21 -23 -12 -6 5 12 15 25 20 28 21 13 8
21 -27 17 -27 -2 -46 -13 -65 -35 -16 -17 -28 -27 -28 -22 0 4 7 17 17 27 9
10 14 20 11 23 -6 7 -101 -27 -109 -39 -4 -4 -9 -3 -13 2 -10 16 71 52 144 65
14 2 27 5 30 6 3 0 22 -4 43 -10z m2417 1 c-20 -13 -33 -13 -25 0 3 6 14 10
23 10 15 0 15 -2 2 -10z m-2311 -49 c18 -17 35 -31 39 -31 4 -1 15 -15 25 -31
18 -27 18 -29 1 -29 -9 0 -14 3 -11 6 4 4 -8 19 -26 35 -25 22 -34 25 -46 16
-12 -10 -14 -9 -8 5 4 12 0 21 -14 28 -11 6 -17 15 -14 21 10 15 21 11 54 -20z
m2053 -15 c-6 -48 -12 -46 -12 5 0 22 4 38 8 35 4 -3 6 -21 4 -40z m-73 -18
c0 -41 -2 -48 -9 -31 -5 12 -7 34 -5 50 4 35 4 33 10 33 3 0 5 -24 4 -52z
m148 30 c-3 -8 -6 -5 -6 6 -1 11 2 17 5 13 3 -3 4 -12 1 -19z m33 -28 c-8 -5
-19 -10 -25 -10 -5 0 -3 5 5 10 8 5 20 10 25 10 6 0 3 -5 -5 -10z m-2460 -24
c0 -2 -7 -7 -16 -10 -8 -3 -12 -2 -9 4 6 10 25 14 25 6z m260 0 c0 -2 -16 -16
-35 -30 -19 -15 -35 -23 -35 -19 0 4 15 18 33 31 33 23 37 25 37 18z m2087
-68 c-2 -13 -4 -3 -4 22 0 25 2 35 4 23 2 -13 2 -33 0 -45z m-2183 27 c11 -8
16 -18 11 -22 -4 -5 -10 -2 -12 5 -3 6 -11 12 -19 12 -8 0 -14 5 -14 10 0 14
11 12 34 -5z m226 -25 c0 -11 -4 -20 -10 -20 -5 0 -10 2 -10 4 0 2 -3 11 -6
20 -4 11 -1 16 10 16 9 0 16 -8 16 -20z m1890 -22 c0 -18 -2 -20 -9 -8 -6 8
-7 18 -5 22 9 14 14 9 14 -14z m-2000 -12 c0 -2 -7 -7 -16 -10 -8 -3 -12 -2
-9 4 6 10 25 14 25 6z m111 -19 c-10 -9 -11 -8 -5 6 3 10 9 15 12 12 3 -3 0
-11 -7 -18z m1881 -29 c-9 -9 -12 -7 -12 12 0 19 3 21 12 12 9 -9 9 -15 0 -24z
m-1625 -120 c-3 -8 -6 -5 -6 6 -1 11 2 17 5 13 3 -3 4 -12 1 -19z"/>
<path d="M4133 4873 c-18 -2 -33 -6 -33 -8 0 -3 9 -19 20 -37 11 -18 20 -41
20 -50 0 -15 9 -18 46 -18 l47 0 -6 36 c-7 43 -32 85 -50 82 -6 0 -27 -3 -44
-5z"/>
<path d="M4013 4847 l-31 -12 24 -28 c13 -15 24 -37 24 -49 0 -16 4 -19 23
-14 12 3 32 6 45 6 32 0 31 52 -3 85 -27 28 -36 29 -82 12z"/>
<path d="M4357 4798 c7 -60 10 -68 30 -68 10 -1 32 -7 48 -15 l30 -15 -35 6
c-252 39 -349 34 -470 -27 -157 -78 -243 -220 -257 -422 -5 -85 -3 -99 25
-182 17 -49 43 -112 58 -140 41 -74 167 -196 241 -234 78 -39 83 -39 73 2 -5
17 -10 93 -12 168 -3 128 -5 139 -35 200 -22 44 -57 89 -114 146 -46 45 -80
85 -77 88 3 4 46 15 95 26 119 26 172 54 278 149 50 45 109 94 132 110 42 29
120 60 149 60 22 0 7 19 -24 32 -15 6 -22 12 -15 15 9 3 5 16 -12 41 -14 20
-25 44 -25 53 0 13 -62 49 -84 49 -2 0 -2 -19 1 -42z"/>
<path d="M3889 4791 c-24 -17 -59 -43 -78 -58 l-34 -29 33 -32 32 -33 34 23
c39 27 42 45 12 83 -20 25 -20 27 -2 23 10 -2 23 -17 28 -33 6 -17 11 -31 12
-33 1 -3 85 28 93 34 8 7 -23 65 -40 74 -28 15 -42 12 -90 -19z"/>
<path d="M3717 4625 c-36 -52 -37 -55 -16 -55 12 0 31 -7 41 -17 10 -9 19 -14
21 -12 2 2 15 21 30 41 15 20 27 41 27 47 0 15 -37 51 -52 51 -7 0 -30 -25
-51 -55z"/>
<path d="M3676 4547 c-9 -7 -25 -36 -36 -64 l-20 -53 21 0 c11 0 28 -4 38 -9
15 -8 21 -1 43 45 18 41 22 58 14 68 -17 20 -42 26 -60 13z"/>
<path d="M4880 4541 c-23 -45 1 -101 43 -101 20 0 21 15 5 75 -13 48 -31 57
-48 26z"/>
<path d="M4537 4499 c-70 -17 -122 -51 -227 -154 -69 -66 -118 -106 -143 -114
-20 -7 -37 -15 -37 -17 0 -2 11 -21 25 -42 30 -47 43 -97 60 -247 20 -176 52
-258 115 -290 16 -8 35 -12 44 -9 11 4 6 14 -23 43 -45 45 -60 92 -66 218 -8
130 -11 147 -45 220 -29 63 -29 73 1 73 28 0 78 48 104 101 33 63 79 116 124
139 48 24 138 35 185 22 l37 -11 -7 32 c-3 18 -8 35 -11 40 -6 9 -88 7 -136
-4z"/>
<path d="M4490 4404 c-49 -21 -77 -50 -117 -122 -38 -68 -86 -122 -109 -122
-17 0 -18 6 7 -65 12 -33 27 -118 35 -189 15 -144 36 -201 83 -229 l30 -17
127 61 c69 33 143 67 163 74 l36 14 -51 0 c-174 3 -292 162 -225 306 27 59 55
83 116 101 71 20 141 7 209 -39 16 -11 27 -16 24 -11 -2 5 -31 64 -64 131
l-59 123 -85 -1 c-53 0 -98 -5 -120 -15z"/>
<path d="M4916 4398 c-19 -27 -21 -59 -4 -76 10 -10 78 -18 78 -9 0 14 -40
102 -48 105 -6 2 -17 -7 -26 -20z"/>
<path d="M3616 4401 c-4 -5 -9 -30 -12 -55 -6 -44 -6 -46 19 -46 14 0 32 -2
40 -6 11 -4 16 7 21 42 5 38 3 49 -11 60 -21 16 -49 18 -57 5z"/>
<path d="M4966 4277 c-23 -17 -24 -66 -2 -82 20 -15 66 -7 66 11 0 17 -32 84
-40 84 -3 0 -14 -6 -24 -13z"/>
<path d="M3603 4273 c-14 -5 -16 -37 -7 -95 6 -36 7 -37 27 -23 12 8 30 15 40
15 17 0 19 5 12 48 -4 26 -9 50 -12 55 -5 8 -41 8 -60 0z"/>
<path d="M4577 4188 l-28 -10 46 -29 c33 -21 53 -27 70 -23 31 8 31 9 -2 45
-30 31 -42 33 -86 17z"/>
<path d="M4678 4170 c18 -16 42 -30 52 -30 17 0 18 3 9 24 -11 24 -35 36 -74
36 -16 0 -14 -5 13 -30z"/>
<path d="M4754 4159 c8 -12 34 -30 57 -40 36 -17 40 -17 28 -3 -14 17 -84 64
-94 64 -4 0 1 -10 9 -21z"/>
<path d="M5017 4151 c-30 -51 8 -103 62 -86 19 6 18 8 -7 60 -15 29 -29 54
-32 54 -3 1 -13 -12 -23 -28z"/>
<path d="M4512 4137 c-12 -13 -22 -26 -22 -29 0 -7 87 -38 106 -38 6 0 15 8
18 17 5 12 -3 26 -26 45 -40 34 -49 34 -76 5z"/>
<path d="M3628 4139 c-10 -5 -18 -22 -18 -36 0 -30 31 -133 39 -133 12 0 51
67 51 86 0 10 -5 36 -11 57 -10 39 -28 46 -61 26z"/>
<path d="M1813 4120 c-38 -23 -71 -83 -79 -142 -5 -48 6 -100 23 -105 29 -10
146 243 120 259 -18 12 -29 10 -64 -12z"/>
<path d="M3354 4121 c-45 -27 -74 -94 -74 -167 0 -72 11 -94 35 -74 20 17 60
93 92 179 19 51 21 66 11 72 -19 13 -30 11 -64 -10z"/>
<path d="M4684 4110 c-11 -5 -33 -22 -47 -40 -71 -84 9 -230 127 -230 l34 0
-29 31 c-69 74 -34 188 59 191 38 1 34 10 -13 32 -41 20 -102 27 -131 16z"/>
<path d="M4476 4055 c-4 -19 -4 -39 -1 -45 3 -5 29 -7 58 -5 46 3 52 6 52 25
0 16 -10 25 -35 35 -19 7 -42 15 -51 19 -13 6 -18 -1 -23 -29z"/>
<path d="M5097 4043 c-11 -11 -7 -57 6 -74 13 -17 60 -32 70 -23 7 7 -13 54
-23 54 -4 0 -12 11 -18 25 -12 25 -23 31 -35 18z"/>
<path d="M4780 4015 c-34 -36 -31 -89 7 -126 23 -23 38 -28 78 -29 61 -2 175
11 175 19 0 15 -130 142 -155 151 -44 17 -80 12 -105 -15z"/>
<path d="M4480 3985 c0 -2 5 -15 11 -28 10 -23 14 -24 52 -15 49 11 49 11 41
32 -4 12 -19 16 -55 16 -27 0 -49 -2 -49 -5z"/>
<path d="M3706 3934 c-15 -38 -17 -50 -6 -72 10 -23 13 -25 23 -11 7 9 22 21
34 27 l22 12 -26 45 c-13 25 -25 45 -26 45 -1 0 -10 -21 -21 -46z"/>
<path d="M4532 3923 c-26 -10 17 -43 47 -36 33 8 33 7 25 27 -6 16 -44 21 -72
9z"/>
<path d="M4590 3873 c-24 -5 -23 -5 9 -19 18 -8 42 -14 53 -14 19 0 19 2 -5
20 -14 11 -27 19 -29 19 -1 -1 -14 -4 -28 -6z"/>
<path d="M2961 3825 c-57 -62 -56 -100 2 -55 24 19 55 86 44 96 -2 2 -23 -16
-46 -41z"/>
<path d="M3764 3862 c-6 -4 -16 -16 -22 -28 -9 -17 -6 -27 15 -57 14 -21 29
-37 33 -37 4 0 12 11 18 25 6 14 16 25 22 25 19 0 10 26 -18 53 -31 30 -32 30
-48 19z"/>
<path d="M5640 3769 c-17 -30 -11 -48 16 -55 18 -5 29 -1 40 12 15 19 15 18 9
0 -6 -19 9 -36 32 -36 11 0 49 59 41 64 -2 1 -31 9 -66 17 -59 15 -63 15 -72
-2z"/>
<path d="M3832 3768 c-25 -25 -14 -65 28 -98 22 -17 40 -27 40 -22 0 6 12 24
26 41 14 17 22 31 17 31 -6 0 -23 13 -39 30 -31 32 -53 37 -72 18z"/>
<path d="M5023 3753 c-16 -45 -9 -51 46 -39 27 6 51 14 53 18 7 16 -33 48 -61
48 -23 0 -31 -6 -38 -27z"/>
<path d="M5150 3761 c-15 -29 -14 -31 33 -31 53 0 62 8 40 32 -21 24 -60 23
-73 -1z"/>
<path d="M4910 3731 c-12 -23 -13 -61 -2 -61 20 1 87 29 90 39 13 38 -69 57
-88 22z"/>
<path d="M5115 3698 c-128 -16 -198 -47 -475 -212 -80 -48 -191 -110 -247
-139 -57 -29 -103 -56 -103 -61 0 -56 420 -296 518 -296 17 0 32 -5 34 -11 2
-6 41 -20 88 -31 l84 -20 17 23 c20 27 16 39 -14 39 -39 0 -170 37 -267 74
-153 59 -366 184 -357 209 6 20 275 194 387 251 188 96 318 130 495 130 135
-1 239 -21 364 -73 41 -17 75 -31 77 -31 2 0 4 10 4 23 0 20 -12 28 -86 56
-166 63 -361 89 -519 69z"/>
<path d="M3941 3674 c-25 -32 -26 -44 -6 -44 9 0 18 -6 21 -14 4 -12 12 -12
51 0 25 8 58 14 72 14 20 1 9 9 -44 35 -38 19 -71 35 -72 35 -1 0 -11 -12 -22
-26z"/>
<path d="M4780 3668 c-18 -20 -28 -68 -14 -68 14 0 114 51 114 58 0 35 -69 42
-100 10z"/>
<path d="M5148 3633 c-22 -3 -42 -11 -47 -21 -12 -23 -25 -132 -16 -132 5 0
32 7 60 16 50 16 53 19 63 63 6 25 14 54 17 64 8 18 5 18 -77 10z"/>
<path d="M5231 3604 c-6 -22 -11 -50 -11 -63 0 -19 4 -22 23 -17 12 3 34 6 49
6 23 0 27 5 33 40 9 54 21 58 17 7 l-4 -42 61 -1 c55 0 61 2 61 20 0 12 3 30
6 42 7 25 -16 32 -143 41 l-81 6 -11 -39z"/>
<path d="M4648 3603 c-17 -20 -31 -70 -23 -83 3 -4 32 8 65 27 57 34 59 37 44
55 -22 23 -66 23 -86 1z"/>
<path d="M5030 3603 c-30 -7 -59 -18 -64 -23 -11 -11 -24 -137 -16 -150 4 -7
28 -1 63 15 57 26 57 27 57 70 0 24 5 56 10 71 6 15 9 28 8 29 -2 2 -28 -4
-58 -12z"/>
<path d="M5476 3588 c-12 -48 -8 -54 50 -67 30 -7 57 -11 60 -9 2 3 7 18 10
36 6 30 5 31 -47 46 -67 20 -66 20 -73 -6z"/>
<path d="M3762 3574 c-41 -13 -102 -41 -137 -61 -62 -35 -64 -38 -70 -85 -4
-27 -5 -52 -2 -54 3 -3 20 8 38 24 80 68 217 142 264 142 21 0 76 41 69 52
-10 16 -89 7 -162 -18z"/>
<path d="M4888 3554 c-30 -13 -40 -24 -52 -62 -15 -43 -22 -132 -11 -132 3 0
28 11 55 25 49 25 50 26 50 73 0 26 4 62 9 80 11 37 5 39 -51 16z"/>
<path d="M5606 3548 c-10 -38 -7 -44 28 -60 l34 -17 6 31 c9 44 9 44 -19 56
-36 17 -42 15 -49 -10z"/>
<path d="M4505 3515 c-27 -26 -30 -41 -15 -65 7 -12 15 -11 52 9 63 35 66 40
39 62 -31 25 -47 24 -76 -6z"/>
<path d="M5686 3498 c-5 -31 -3 -45 9 -57 13 -14 15 -12 15 19 0 19 3 45 6 58
5 15 2 22 -9 22 -9 0 -17 -14 -21 -42z"/>
<path d="M4778 3501 c-35 -19 -52 -36 -63 -65 -22 -53 -29 -208 -13 -276 12
-50 17 -57 57 -77 25 -13 46 -21 48 -20 1 2 -2 19 -7 38 -6 18 -10 61 -10 95
l0 62 -45 11 c-25 6 -45 17 -45 24 0 6 23 22 50 34 48 21 50 24 50 61 0 21 7
61 15 87 8 27 13 50 12 51 -1 1 -23 -10 -49 -25z"/>
<path d="M3756 3471 c-129 -66 -219 -140 -235 -193 -7 -22 -15 -47 -19 -56 -9
-25 51 21 143 109 77 73 129 109 157 109 7 0 23 18 35 40 12 22 20 40 17 40
-2 0 -46 -22 -98 -49z"/>
<path d="M5245 3503 c-64 -17 -176 -58 -262 -97 -179 -81 -235 -108 -231 -112
7 -7 269 -91 353 -114 165 -44 340 -36 535 23 72 23 75 25 78 57 2 18 0 36 -5
41 -5 5 -71 -8 -148 -27 -226 -57 -462 -60 -525 -7 -115 96 126 209 405 189
87 -6 199 -31 244 -55 34 -19 25 5 -13 34 -69 53 -129 68 -276 71 -74 2 -144
0 -155 -3z"/>
<path d="M3480 3475 c-20 -24 -6 -28 15 -5 10 11 13 20 8 20 -6 0 -16 -7 -23
-15z"/>
<path d="M4364 3456 c-35 -15 -47 -46 -33 -83 l9 -25 68 38 c37 20 69 38 70
40 4 2 -74 44 -80 44 -2 -1 -17 -7 -34 -14z"/>
<path d="M4644 3424 c-34 -20 -44 -33 -53 -70 -13 -50 -17 -167 -6 -184 6 -10
98 -60 109 -60 3 0 2 10 -3 23 -24 64 -22 203 5 300 7 23 -3 21 -52 -9z"/>
<path d="M3473 3416 c-32 -21 -54 -61 -68 -123 -9 -43 5 -42 54 5 31 29 41 47
46 85 4 26 6 49 4 51 -2 2 -19 -6 -36 -18z"/>
<path d="M5273 3433 c-10 -3 -9 -12 3 -35 18 -34 22 -81 11 -120 -7 -28 -7
-28 38 -28 42 0 46 2 60 36 34 83 5 155 -63 153 -20 0 -43 -3 -49 -6z"/>
<path d="M5400 3408 c22 -36 26 -82 10 -124 -10 -27 -10 -27 27 -21 51 9 85
45 85 92 0 55 -33 85 -94 85 l-48 0 20 -32z"/>
<path d="M5513 3423 c27 -31 33 -87 13 -118 l-17 -26 38 7 c72 13 91 36 78 94
-5 24 -14 32 -48 40 -23 6 -51 14 -62 17 -19 5 -19 5 -2 -14z"/>
<path d="M5182 3418 l-42 -9 20 -26 c24 -30 26 -80 5 -110 -14 -20 -13 -21 25
-25 52 -5 67 5 79 47 13 49 -11 138 -38 134 -3 -1 -25 -5 -49 -11z"/>
<path d="M3745 3388 c-22 -17 -74 -64 -115 -103 -41 -39 -86 -77 -99 -86 -23
-14 -21 -15 65 -48 97 -37 192 -48 185 -21 -13 53 -12 162 3 219 9 34 16 65
16 67 0 11 -19 1 -55 -28z m-12 -152 c7 -17 -1 -26 -24 -26 -21 0 -33 15 -24
30 9 15 42 12 48 -4z m-83 -27 c0 -20 -24 -26 -35 -9 -4 6 -4 17 -1 25 7 20
36 7 36 -16z"/>
<path d="M5635 3359 c0 -54 -1 -53 44 -38 49 17 40 55 -19 77 -25 9 -25 9 -25
-39z"/>
<path d="M5089 3384 c-34 -17 -62 -60 -54 -83 6 -19 45 -41 74 -41 41 0 65 65
41 109 -14 26 -32 31 -61 15z"/>
<path d="M4543 3359 c-37 -23 -56 -64 -51 -110 2 -25 11 -38 36 -52 l32 -19 0
64 c0 35 4 79 10 97 5 19 8 36 7 37 -1 2 -17 -6 -34 -17z"/>
<path d="M4215 3345 c-54 -53 -9 -145 71 -145 l38 0 -26 28 c-24 26 -48 64
-48 77 0 3 17 13 37 22 l37 15 -24 14 c-36 20 -58 17 -85 -11z"/>
<path d="M3265 3268 c-38 -26 -94 -57 -122 -70 -29 -12 -53 -25 -53 -29 0 -4
15 -11 33 -14 17 -4 61 -20 96 -36 78 -35 81 -35 81 -4 0 21 -9 29 -46 45 -50
22 -50 40 0 40 44 0 61 17 74 70 6 24 10 45 9 45 -1 1 -33 -20 -72 -47z"/>
<path d="M4441 3290 l-23 -20 23 -19 c13 -11 24 -19 25 -18 6 9 11 77 6 77 -4
-1 -18 -10 -31 -20z"/>
<path d="M3425 3239 c-57 -39 -69 -108 -19 -109 12 0 68 115 62 129 -2 4 -21
-5 -43 -20z"/>
<path d="M4806 3242 c-6 -12 2 -108 13 -149 9 -34 16 -40 56 -52 25 -7 48 -11
51 -9 2 3 0 17 -6 32 -5 15 -10 55 -10 90 l0 62 -50 16 c-27 9 -52 13 -54 10z"/>
<path d="M4920 3167 c0 -24 7 -66 15 -94 14 -47 18 -51 53 -58 20 -3 47 -9 59
-12 21 -5 21 -4 6 38 -8 24 -13 63 -12 88 3 42 2 45 -31 56 -19 7 -47 15 -62
19 -27 6 -28 5 -28 -37z"/>
<path d="M4334 3166 c-18 -48 31 -98 70 -72 32 21 30 34 -13 60 -47 30 -50 31
-57 12z"/>
<path d="M3462 3135 c-11 -23 -9 -26 21 -38 53 -22 188 -55 252 -62 71 -7 92
3 76 33 -9 17 -21 21 -63 21 -57 0 -77 5 -181 45 -83 32 -91 32 -105 1z"/>
<path d="M5054 3146 c-5 -12 21 -134 29 -143 2 -1 36 -6 77 -9 70 -7 73 -6 66
12 -5 10 -11 43 -15 73 l-6 55 -55 12 c-72 17 -89 17 -96 0z"/>
<path d="M4450 3083 c0 -22 5 -44 12 -51 17 -17 54 -15 73 4 19 19 13 27 -47
63 l-38 23 0 -39z"/>
<path d="M3366 3088 c-10 -39 -6 -44 13 -18 19 23 19 40 2 40 -5 0 -11 -10
-15 -22z"/>
<path d="M3418 3052 l-18 -30 48 -20 c76 -32 89 -34 96 -17 9 25 44 18 60 -13
13 -25 23 -30 93 -40 125 -19 156 -17 170 15 23 48 -1 60 -130 65 -89 4 -127
11 -187 33 -111 40 -113 41 -132 7z"/>
<path d="M4564 3024 c-4 -14 -1 -38 6 -52 l12 -27 15 23 c19 27 38 28 55 3 14
-19 14 -19 27 1 7 11 11 21 9 23 -6 5 -107 55 -112 55 -3 0 -9 -12 -12 -26z"/>
<path d="M3370 2986 c-26 -33 -8 -261 27 -329 39 -78 113 46 127 214 l5 65
-67 30 c-36 16 -69 30 -72 32 -4 1 -13 -4 -20 -12z"/>
<path d="M4700 2956 c0 -26 7 -44 26 -63 30 -30 41 -23 50 33 6 38 4 42 -19
48 -14 3 -32 9 -41 12 -13 5 -16 -1 -16 -30z"/>
<path d="M5237 2973 c-75 -4 -78 -5 -71 -26 3 -12 7 -23 8 -23 2 -3 101 -7
127 -6 15 1 34 14 47 32 l23 30 -28 -2 c-15 -1 -63 -4 -106 -5z"/>
<path d="M5404 2944 c-18 -15 -18 -15 6 -10 14 3 33 6 43 6 9 0 17 5 17 10 0
16 -44 12 -66 -6z"/>
<path d="M3202 2912 c-37 -34 -56 -98 -49 -165 9 -98 57 -73 96 50 31 96 32
137 5 141 -12 2 -33 -9 -52 -26z"/>
<path d="M4663 2928 c-6 -7 -14 -39 -18 -70 l-7 -56 38 -11 c56 -16 61 -14 73
21 12 34 12 36 -21 52 -13 6 -30 26 -39 45 -12 26 -18 30 -26 19z"/>
<path d="M4845 2919 c-9 -27 23 -73 53 -77 13 -2 32 7 48 23 40 41 35 45 -93
75 -1 0 -5 -10 -8 -21z"/>
<path d="M5108 2923 c7 -3 16 -2 19 1 4 3 -2 6 -13 5 -11 0 -14 -3 -6 -6z"/>
<path d="M5412 2910 c-39 -9 -47 -16 -57 -48 -6 -22 -3 -21 47 13 74 51 74 50
10 35z"/>
<path d="M3594 2885 c-10 -40 0 -45 18 -9 15 29 15 34 3 34 -8 0 -17 -11 -21
-25z"/>
<path d="M3948 2893 c-14 -17 -13 -21 18 -50 28 -28 34 -30 45 -17 7 9 26 23
43 31 l31 16 -45 13 c-25 6 -52 15 -61 18 -9 4 -22 -1 -31 -11z"/>
<path d="M4984 2895 c4 -24 16 -30 16 -7 0 12 -4 22 -9 22 -5 0 -8 -7 -7 -15z"/>
<path d="M5432 2869 c-38 -25 -73 -58 -89 -83 -55 -90 -78 -118 -122 -150 -42
-29 -52 -45 -96 -147 -60 -142 -185 -536 -185 -586 0 -7 9 -13 20 -13 11 0 20
-7 20 -15 0 -9 -9 -15 -24 -15 -22 0 -26 -6 -32 -45 -3 -25 -4 -48 -1 -52 3
-3 43 -1 89 3 l83 9 3 33 3 34 -56 -7 c-53 -7 -57 -6 -51 11 3 11 13 46 21 79
99 378 129 473 182 578 65 130 145 227 266 322 31 24 38 36 35 58 l-3 27 -63
-41z"/>
<path d="M4209 2873 c-17 -15 -38 -42 -45 -60 -16 -37 -19 -143 -4 -143 5 0
25 35 45 78 20 42 43 89 51 105 15 26 12 47 -6 47 -5 0 -23 -12 -41 -27z"/>
<path d="M3736 2878 c20 -36 39 -48 76 -48 36 0 38 2 38 30 l0 30 -61 0 c-45
0 -58 -3 -53 -12z"/>
<path d="M4333 2879 c-6 -8 -32 -56 -57 -107 -47 -93 -61 -157 -47 -210 l7
-24 25 33 c21 28 27 48 31 111 4 57 12 91 33 131 27 54 32 95 8 66z"/>
<path d="M5066 2868 c-10 -39 -6 -44 14 -19 23 27 25 41 6 41 -7 0 -16 -10
-20 -22z"/>
<path d="M5157 2856 c-14 -31 -14 -35 -1 -40 25 -9 33 -7 54 14 30 30 26 60
-8 60 -22 0 -32 -7 -45 -34z"/>
<path d="M5257 2883 c-15 -14 -7 -63 12 -73 34 -18 41 -11 41 35 0 40 -2 45
-23 45 -13 0 -27 -3 -30 -7z"/>
<path d="M4049 2823 c-56 -47 -119 -112 -119 -123 0 -5 9 -14 20 -20 22 -12
45 -4 73 28 22 24 87 152 77 152 -3 0 -26 -17 -51 -37z"/>
<path d="M4435 2843 c2 -10 7 -35 10 -55 l6 -37 45 31 45 30 -51 24 c-62 29
-59 28 -55 7z"/>
<path d="M3920 2797 l0 -52 26 26 c21 22 24 30 15 47 -6 11 -17 22 -26 26 -12
4 -15 -4 -15 -47z"/>
<path d="M4842 2803 l3 -48 62 -3 62 -3 10 37 c14 49 -1 71 -32 49 -28 -19
-57 -19 -85 1 l-23 16 3 -49z"/>
<path d="M4342 2792 c-24 -54 -40 -152 -25 -152 5 0 21 12 35 28 24 25 25 33
21 97 -2 38 -5 71 -7 72 -2 2 -13 -18 -24 -45z"/>
<path d="M5202 2803 c-18 -12 -30 -14 -50 -7 -19 7 -36 5 -59 -6 -37 -17 -39
-26 -18 -76 12 -28 19 -35 32 -29 10 4 28 10 41 12 16 4 22 12 22 32 0 28 36
71 58 71 7 0 12 5 12 10 0 14 -11 12 -38 -7z"/>
<path d="M5434 2778 c-67 -58 -149 -152 -186 -216 -27 -47 -29 -57 -19 -80 17
-36 69 -100 92 -112 16 -9 21 -5 34 27 30 71 29 75 -24 141 -28 35 -51 66 -51
70 1 8 42 -37 80 -86 l26 -32 27 55 27 55 -30 7 c-36 7 -35 6 -44 58 -6 38 -5
39 7 16 l14 -24 43 43 c31 31 41 48 38 65 -4 16 -1 22 9 18 8 -3 13 2 13 16 0
12 -1 21 -3 21 -2 0 -25 -19 -53 -42z"/>
<path d="M5550 2774 c-11 -27 -28 -57 -38 -69 -9 -11 7 2 36 29 43 41 49 52
40 65 -7 9 -13 17 -14 19 -1 2 -12 -18 -24 -44z"/>
<path d="M5212 2774 c-23 -16 -32 -77 -12 -89 6 -3 10 -2 10 3 0 4 15 26 34
47 19 21 33 42 30 47 -8 13 -38 9 -62 -8z"/>
<path d="M4513 2744 c-52 -33 -73 -59 -73 -89 0 -10 15 0 43 28 23 24 53 50
66 58 13 8 22 20 20 26 -2 6 -26 -3 -56 -23z"/>
<path d="M3796 2728 c-36 -42 -37 -42 -14 -51 13 -4 32 -17 44 -28 21 -19 21
-19 33 7 13 30 6 88 -14 104 -10 8 -22 0 -49 -32z"/>
<path d="M4640 2736 c0 -12 7 -12 38 -4 51 14 52 18 4 18 -30 0 -42 -4 -42
-14z"/>
<path d="M4503 2675 c-24 -25 -43 -49 -43 -54 0 -5 17 -11 38 -14 26 -3 41 0
50 11 19 24 14 42 -10 43 -16 1 -12 4 10 8 18 3 33 9 32 14 0 4 0 14 0 22 0
28 -33 15 -77 -30z"/>
<path d="M4673 2713 c-14 -3 -23 -12 -23 -23 0 -29 17 -33 39 -8 21 22 27 39
14 37 -5 -1 -18 -4 -30 -6z"/>
<path d="M4850 2704 c0 -25 19 -54 36 -54 17 0 64 44 64 60 0 5 -22 10 -50 10
-39 0 -50 -4 -50 -16z"/>
<path d="M4755 2692 c-5 -4 -21 -22 -34 -41 -19 -27 -21 -37 -13 -56 6 -13 20
-26 32 -30 28 -9 79 1 104 20 19 14 19 15 -6 34 -14 11 -31 34 -38 51 -12 30
-26 36 -45 22z"/>
<path d="M4050 2670 c0 -16 -62 -50 -90 -50 -14 0 -35 7 -47 15 -21 15 -24 14
-49 -27 -15 -23 -41 -81 -58 -128 -28 -78 -31 -95 -31 -215 0 -113 3 -138 23
-188 43 -105 155 -196 264 -213 31 -5 38 -4 38 10 0 9 7 16 15 16 9 0 15 -9
15 -21 0 -21 3 -21 108 -17 109 4 152 17 152 43 0 8 9 15 20 15 13 0 18 -5 14
-15 -5 -13 -1 -13 34 -1 59 21 101 45 79 46 -34 0 -110 44 -166 94 -109 99
-95 93 -136 57 -36 -31 -50 -36 -80 -25 -19 8 -45 55 -45 85 0 19 -4 21 -30
15 -16 -3 -43 -9 -60 -12 -37 -8 -38 4 -6 54 30 45 62 139 70 207 7 57 -13
265 -26 265 -4 0 -8 -5 -8 -10z"/>
<path d="M5125 2670 c-4 -6 7 -10 24 -10 17 0 31 5 31 10 0 6 -11 10 -24 10
-14 0 -28 -4 -31 -10z"/>
<path d="M3725 2627 l-25 -42 31 -6 c16 -4 38 -14 48 -23 16 -15 18 -14 34 18
15 33 15 36 -3 59 -34 42 -57 41 -85 -6z"/>
<path d="M4581 2641 c-15 -26 -13 -92 2 -111 44 -57 102 -63 187 -20 71 36 84
51 30 38 -53 -14 -88 -3 -108 32 -11 19 -25 30 -39 30 -12 0 -31 11 -42 26
-19 24 -20 25 -30 5z"/>
<path d="M4107 2583 c19 -140 3 -252 -49 -355 l-18 -38 30 0 c34 0 33 -2 49
90 6 36 29 102 51 146 37 76 39 86 34 142 -7 59 -7 60 -30 50 -18 -8 -29 -7
-49 6 l-25 17 7 -58z"/>
<path d="M4342 2598 c-12 -14 -20 -27 -17 -30 3 -3 9 -34 14 -69 l7 -64 13 72
c7 39 11 81 9 93 -3 22 -3 22 -26 -2z"/>
<path d="M5100 2604 c0 -12 28 -40 33 -33 1 2 8 11 15 20 11 14 8 17 -18 21
-19 3 -30 0 -30 -8z"/>
<path d="M4447 2583 c-8 -7 -10 -83 -2 -83 3 0 22 9 42 20 21 11 44 20 51 20
9 0 12 6 8 16 -3 9 -6 20 -6 25 0 10 -83 13 -93 2z"/>
<path d="M5447 2573 c-9 -15 -36 -83 -33 -83 4 0 56 78 56 85 0 8 -18 6 -23
-2z"/>
<path d="M3676 2529 c-21 -51 -20 -54 6 -56 12 -1 34 -11 49 -22 l27 -20 11
31 c6 17 11 36 11 43 0 21 -25 45 -57 54 -30 9 -32 8 -47 -30z"/>
<path d="M5040 2540 c-11 -11 -20 -31 -20 -45 0 -23 31 -65 48 -65 10 0 52
112 46 122 -10 15 -54 8 -74 -12z"/>
<path d="M4273 2509 c-24 -34 -32 -58 -35 -104 -2 -33 -8 -67 -12 -76 -11 -24
63 -34 82 -11 14 18 16 46 3 37 -15 -9 -24 14 -12 29 16 19 24 105 13 141 l-8
29 -31 -45z"/>
<path d="M4503 2510 c-24 -10 -43 -25 -43 -33 0 -14 36 -57 48 -57 15 1 61 80
56 95 -8 19 -10 19 -61 -5z"/>
<path d="M4800 2495 c-8 -7 -33 -20 -55 -27 -29 -9 -41 -19 -43 -36 -2 -12 1
-22 7 -22 10 0 120 99 111 100 -3 0 -12 -7 -20 -15z"/>
<path d="M5444 2458 c-46 -78 -76 -166 -77 -228 -2 -75 4 -83 51 -64 55 23 69
42 88 114 17 66 17 66 -5 96 -16 22 -22 45 -23 82 0 29 -1 52 -2 52 -1 0 -15
-24 -32 -52z"/>
<path d="M4551 2449 c-13 -22 -21 -42 -19 -44 1 -2 15 -6 30 -10 24 -6 29 -3
43 30 11 29 12 41 4 51 -19 23 -34 16 -58 -27z"/>
<path d="M4409 2422 l-15 -57 63 -77 c72 -86 139 -128 222 -136 l47 -4 23 91
c12 50 33 120 46 156 l23 65 -39 -31 c-48 -38 -127 -69 -174 -69 -65 0 -130
37 -165 92 l-16 27 -15 -57z"/>
<path d="M5186 2440 c-9 -22 -16 -48 -16 -58 0 -22 42 -86 88 -134 20 -21 31
-38 25 -38 -16 0 -87 81 -104 118 -7 18 -17 32 -20 32 -4 0 -12 -20 -18 -45
-10 -38 -8 -52 11 -102 20 -54 72 -133 89 -133 8 0 39 77 72 180 l24 75 -47
42 c-26 23 -53 56 -60 73 -7 16 -16 30 -20 30 -4 0 -15 -18 -24 -40z"/>
<path d="M5497 2459 c-3 -12 0 -36 8 -53 l13 -31 1 53 c1 52 -12 70 -22 31z"/>
<path d="M4627 2443 c-2 -10 -8 -26 -12 -36 -7 -16 -3 -18 25 -15 25 2 35 10
45 36 l14 32 -33 0 c-23 0 -35 -5 -39 -17z"/>
<path d="M3641 2428 c-5 -13 -12 -43 -16 -67 -7 -41 -6 -43 11 -35 11 4 38 8
62 7 38 0 43 2 48 26 3 14 7 32 10 39 5 16 -53 52 -84 52 -14 0 -26 -8 -31
-22z"/>
<path d="M4195 2364 c-9 -25 -15 -47 -12 -50 4 -5 20 31 32 74 11 39 -2 24
-20 -24z"/>
<path d="M4988 2399 c-25 -14 -22 -51 5 -77 13 -12 26 -22 29 -22 6 0 38 86
38 102 0 11 -51 9 -72 -3z"/>
<path d="M4372 2304 c-13 -26 -12 -29 15 -48 15 -11 60 -52 98 -92 39 -39 84
-78 100 -86 77 -39 135 -30 135 21 0 27 -2 29 -47 29 -85 2 -167 55 -253 161
l-35 44 -13 -29z"/>
<path d="M3642 2294 c-18 -13 -22 -24 -22 -72 1 -47 3 -54 13 -42 20 27 60 50
84 50 20 0 23 5 23 40 0 40 0 40 -38 40 -21 0 -48 -7 -60 -16z"/>
<path d="M4165 2272 c-3 -8 -5 -28 -5 -47 0 -30 3 -33 37 -38 20 -4 40 -4 45
-1 8 5 48 78 48 88 0 2 -27 6 -60 8 -43 2 -61 -1 -65 -10z"/>
<path d="M4942 2264 c-38 -27 -22 -93 26 -106 13 -3 55 100 46 114 -8 13 -48
9 -72 -8z"/>
<path d="M4318 2198 l-28 -52 66 -60 c89 -82 148 -116 202 -116 48 0 54 -13
21 -51 l-21 -24 48 -3 c48 -3 78 -17 69 -32 -2 -4 -22 -3 -44 3 -34 9 -43 8
-61 -8 -32 -29 -25 -54 18 -71 20 -8 49 -21 64 -29 26 -13 28 -13 32 8 3 12 8
71 11 131 4 59 9 114 12 122 4 11 -6 14 -41 14 -66 0 -108 25 -213 129 -51 50
-96 91 -100 91 -5 0 -20 -24 -35 -52z"/>
<path d="M5106 2187 c-20 -73 -18 -82 40 -153 35 -44 95 -84 155 -103 31 -10
42 -8 85 10 47 21 48 22 24 32 -14 5 -54 24 -89 41 -36 17 -73 29 -84 28 -13
-2 -17 0 -12 8 4 6 -4 23 -18 38 -36 39 -57 76 -71 123 l-12 41 -18 -65z"/>
<path d="M3671 2185 c-16 -14 -33 -35 -36 -45 -6 -20 20 -130 31 -130 3 0 16
13 30 29 14 17 34 33 45 36 22 7 22 12 3 108 -7 35 -33 35 -73 2z"/>
<path d="M5295 2157 c-11 -28 -21 -56 -23 -60 -5 -10 25 5 49 25 13 11 14 19
5 50 l-11 38 -20 -53z"/>
<path d="M4160 2150 c0 -27 17 -34 42 -16 23 16 24 15 -27 31 -10 3 -15 -2
-15 -15z"/>
<path d="M5405 2140 c-3 -5 1 -10 9 -10 8 0 18 5 21 10 3 6 -1 10 -9 10 -8 0
-18 -4 -21 -10z"/>
<path d="M4934 2130 c-17 -4 -36 -10 -42 -14 -22 -13 -13 -64 16 -97 l28 -31
18 71 c10 40 17 73 15 75 -2 1 -18 0 -35 -4z"/>
<path d="M5069 2058 c-6 -24 -13 -54 -15 -69 -4 -33 29 -87 61 -99 14 -5 25
-14 25 -19 0 -6 6 -9 13 -6 6 2 46 14 87 26 l75 21 -60 28 c-70 33 -102 59
-143 118 l-31 43 -12 -43z"/>
<path d="M3726 2038 c-43 -38 -43 -75 0 -132 l37 -48 12 29 c7 17 23 39 35 50
l21 21 -28 51 c-15 28 -33 51 -40 51 -7 0 -23 -10 -37 -22z"/>
<path d="M4862 1958 c-7 -7 -12 -25 -12 -40 0 -24 4 -28 29 -28 24 0 31 6 40
31 6 18 11 36 11 40 0 13 -54 11 -68 -3z"/>
<path d="M5035 1935 c-3 -16 -11 -43 -16 -59 l-9 -29 41 6 c52 7 57 12 33 38
-10 11 -24 33 -30 47 l-11 27 -8 -30z"/>
<path d="M3821 1924 c-11 -15 -21 -29 -21 -33 0 -3 21 -4 46 -2 35 2 53 -2 75
-18 15 -12 32 -21 37 -21 5 0 9 -8 9 -17 -1 -84 -1 -84 69 -98 30 -6 32 -4 36
27 3 18 8 40 12 48 5 12 -4 19 -41 28 -62 17 -141 57 -174 88 l-26 25 -22 -27z"/>
<path d="M4475 1871 c-61 -25 -65 -29 -65 -77 0 -42 1 -44 30 -44 19 0 30 5
30 14 0 7 13 39 28 70 16 31 26 56 23 55 -3 -1 -24 -8 -46 -18z"/>
<path d="M3821 1857 c-13 -6 -24 -16 -25 -21 -1 -11 110 -73 117 -66 19 21 16
52 -7 75 -28 28 -49 31 -85 12z"/>
<path d="M4311 1829 c-51 -10 -57 -15 -65 -49 -10 -42 4 -51 67 -44 55 7 57 8
57 37 0 17 7 39 17 49 15 17 15 18 -8 17 -13 -1 -44 -5 -68 -10z"/>
<path d="M4130 1775 l0 -45 44 0 c40 0 44 2 48 28 3 15 9 35 13 45 6 15 1 17
-49 17 l-56 0 0 -45z"/>
<path d="M4852 1800 c-17 -27 -15 -75 3 -90 13 -11 15 -5 15 49 0 33 -1 61 -3
61 -1 0 -8 -9 -15 -20z"/>
<path d="M3776 1802 c-9 -9 -7 -68 4 -96 14 -37 60 -58 99 -45 29 10 51 35 51
57 0 6 -14 15 -31 21 -16 6 -50 24 -74 40 -24 16 -46 27 -49 23z"/>
<path d="M4092 1760 c0 -14 2 -19 5 -12 2 6 2 18 0 25 -3 6 -5 1 -5 -13z"/>
<path d="M4900 1711 c0 -30 4 -41 15 -41 25 0 73 29 85 50 10 18 8 20 -29 20
-22 0 -46 3 -55 6 -13 5 -16 -2 -16 -35z"/>
<path d="M5024 1734 c3 -9 6 -20 6 -24 0 -14 42 -50 57 -50 9 0 13 15 13 45
l0 45 -41 0 c-33 0 -40 -3 -35 -16z"/>
<path d="M4400 1694 c0 -8 5 -12 10 -9 6 4 8 11 5 16 -9 14 -15 11 -15 -7z"/>
<path d="M2695 3494 c-16 -8 -40 -25 -52 -36 -30 -28 -115 -195 -141 -278 -23
-71 -47 -198 -39 -206 11 -11 75 26 127 73 100 92 170 244 171 371 1 56 -11
92 -30 92 -3 0 -19 -7 -36 -16z"/>
<path d="M1681 1953 c-18 -22 -21 -53 -7 -70 1 -1 32 3 69 9 73 12 79 20 46
62 -28 36 -80 36 -108 -1z"/>
<path d="M1903 1964 c-18 -9 -39 -27 -48 -40 l-15 -24 52 0 c36 0 61 -6 77
-19 22 -17 23 -19 7 -49 -21 -41 -20 -52 5 -52 35 0 79 53 79 95 0 47 -13 71
-50 90 -37 19 -67 19 -107 -1z"/>
<path d="M1550 1943 c-32 -12 -50 -37 -50 -70 0 -39 16 -43 32 -8 13 28 33 32
46 9 10 -18 62 -10 62 10 -1 21 -54 70 -72 65 -2 0 -10 -3 -18 -6z"/>
<path d="M1334 1893 c-19 -15 -20 -19 -7 -45 8 -16 12 -36 9 -44 -8 -21 3 -37
17 -26 11 8 33 17 101 42 28 10 28 11 11 38 -10 15 -24 33 -33 40 -22 17 -74
15 -98 -5z"/>
<path d="M1213 1853 c-8 -3 -13 -21 -13 -44 0 -39 0 -39 39 -39 46 0 69 21 46
40 -8 7 -15 17 -15 22 0 6 7 4 17 -3 15 -13 15 -12 4 9 -6 12 -21 22 -32 22
-11 0 -17 -4 -14 -10 3 -5 2 -10 -4 -10 -5 0 -11 4 -13 9 -1 4 -9 6 -15 4z"/>
<path d="M1725 1855 c-5 -2 -36 -9 -68 -15 -57 -11 -58 -13 -52 -38 3 -15 10
-30 14 -34 4 -5 42 -2 84 4 l77 13 0 37 c0 33 -3 38 -22 37 -13 0 -27 -2 -33
-4z"/>
<path d="M1810 1825 c0 -24 5 -35 15 -35 8 0 15 -4 15 -10 0 -5 11 -10 23 -10
24 0 57 28 57 48 0 22 -33 42 -71 42 -38 0 -39 -1 -39 -35z"/>
<path d="M2090 1820 c0 -38 2 -40 30 -40 25 0 30 4 30 24 0 13 3 31 6 40 5 13
-1 16 -30 16 -35 0 -36 -1 -36 -40z"/>
<path d="M1535 1790 c-20 -39 -20 -40 20 -40 19 0 35 2 35 4 0 15 -24 66 -31
66 -5 0 -15 -13 -24 -30z"/>
<path d="M1430 1785 c-76 -22 -145 -53 -141 -61 2 -5 11 -19 21 -31 l17 -22
74 23 c61 19 75 28 86 52 24 58 19 61 -57 39z"/>
<path d="M1732 1743 c9 -10 23 -31 31 -48 l16 -30 1 48 c0 46 -1 47 -32 47
-29 0 -30 -1 -16 -17z"/>
<path d="M1933 1733 c-3 -10 -19 -49 -34 -88 -16 -40 -24 -72 -18 -74 24 -8
80 12 108 38 23 22 31 38 31 63 0 57 -71 106 -87 61z"/>
<path d="M2090 1705 c0 -33 4 -45 15 -45 8 0 15 3 15 8 0 4 4 24 9 45 8 35 8
37 -15 37 -22 0 -24 -4 -24 -45z"/>
<path d="M1415 1681 c-19 -8 -19 -8 4 -20 19 -11 25 -11 32 0 18 29 5 36 -36
20z"/>
<path d="M1836 1476 c-14 -41 -26 -77 -26 -80 0 -3 18 -6 40 -6 51 0 80 27 80
75 0 35 -35 85 -58 85 -5 0 -21 -33 -36 -74z"/>
<path d="M983 2486 c4 -10 7 -43 7 -74 0 -54 1 -57 25 -58 20 -2 30 6 44 35
10 20 21 48 25 64 3 15 10 27 15 27 14 0 -8 -71 -32 -104 l-20 -29 22 -18 c25
-21 34 -18 91 30 l34 29 -23 33 c-36 53 -67 70 -133 77 -55 5 -61 3 -55 -12z"/>
<path d="M1174 2357 c-6 -7 -24 -23 -41 -37 -30 -24 -31 -26 -17 -57 l14 -32
37 20 38 21 -24 -21 c-13 -12 -30 -25 -36 -29 -12 -7 -29 -82 -19 -82 15 0 62
31 67 45 12 30 19 115 13 149 -7 38 -14 43 -32 23z"/>
<path d="M3026 1800 c-9 -23 -15 -45 -12 -47 2 -2 17 -3 33 -1 l29 3 -17 44
-16 44 -17 -43z"/>
<path d="M5631 1800 c-20 -44 -20 -45 -1 -48 11 -2 28 -2 38 0 17 3 17 5 1 48
l-17 45 -21 -45z"/>
</g>
</svg>
